<svg width="18" height="18" viewBox="0 0 18 18" fill="none" xmlns="http://www.w3.org/2000/svg">
<path d="M16.6073 14.0626V8.63104C16.6073 8.10791 16.6069 7.8462 16.5433 7.60277C16.4869 7.38705 16.3943 7.18291 16.2691 6.99843C16.1278 6.79026 15.9313 6.61763 15.5376 6.27315L10.8383 2.16123C10.1074 1.52165 9.74189 1.20202 9.33057 1.08038C8.96815 0.973205 8.58184 0.973205 8.21941 1.08038C7.80841 1.20193 7.44347 1.52126 6.71361 2.15988L2.01273 6.27315C1.61903 6.61764 1.42263 6.79026 1.28132 6.99843C1.1561 7.18291 1.06285 7.38705 1.00648 7.60277C0.942871 7.8462 0.942871 8.1079 0.942871 8.63104V14.0626C0.942871 14.975 0.942871 15.431 1.09192 15.7908C1.29065 16.2706 1.67158 16.6522 2.15136 16.8509C2.51119 17 2.96736 17 3.8797 17C4.79204 17 5.24871 17 5.60855 16.8509C6.08833 16.6522 6.46916 16.2707 6.66789 15.7909C6.81693 15.431 6.81704 14.9749 6.81704 14.0625V13.0835C6.81704 12.0021 7.69369 11.1255 8.77509 11.1255C9.85649 11.1255 10.7331 12.0021 10.7331 13.0835V14.0625C10.7331 14.9749 10.7331 15.431 10.8822 15.7909C11.0809 16.2707 11.4619 16.6522 11.9416 16.8509C12.3015 17 12.7576 17 13.67 17C14.5823 17 15.039 17 15.3988 16.8509C15.8786 16.6522 16.2594 16.2706 16.4582 15.7908C16.6072 15.431 16.6073 14.975 16.6073 14.0626Z" stroke="var(--text-color-secondary)" stroke-width="1.75" stroke-linecap="round" stroke-linejoin="round"/>
</svg>
